<svg width="51" height="51" viewBox="0 0 51 51" fill="none" xmlns="http://www.w3.org/2000/svg">
<g clip-path="url(#clip0_166_76)">
<path fill-rule="evenodd" clip-rule="evenodd" d="M49.482 32.15C50.32 32.15 50.999 32.694 50.999 33.532V35.5C50.999 35.888 50.32 36.567 49.482 36.567H43.413V39.753C43.413 41.429 42.54 42.788 40.378 42.788H37.192V48.857C37.192 49.695 36.513 50.374 35.675 50.374H34.157C33.319 50.374 32.64 49.695 32.64 48.857V42.788H28.88V48.857C28.88 49.695 27.409 50.374 26.571 50.374H25.53C24.215 50.374 23.536 49.695 23.536 48.857V42.788H18.984V48.857C18.984 49.695 18.305 50.374 17.467 50.374H15.949C15.111 50.374 14.432 49.695 14.432 48.857V42.788H11.246C9.57002 42.788 8.21102 41.429 8.21102 39.753V36.567H2.14202C1.30402 36.567 0.624023 35.888 0.624023 35.5V33.532C0.624023 32.694 1.30402 32.15 2.14202 32.15H8.21102V27.463H2.14202C1.30402 27.463 0.624023 26.784 0.624023 25.946V24.428C0.624023 23.59 1.30402 22.911 2.14202 22.911H8.21102V18.359H2.14202C1.30402 18.359 0.624023 17.68 0.624023 16.842V15.324C0.624023 14.486 1.30402 13.807 2.14202 13.807H8.21102V10.621C8.21102 8.945 9.57002 7.586 11.246 7.586H14.432V1.517C14.432 0.679 15.111 0 15.949 0H17.467C18.305 0 18.984 0.679 18.984 1.517V7.586H23.536V1.517C23.536 0.679 24.215 0 25.53 0H26.571C27.409 0 28.88 0.679 28.88 1.517V7.586H32.64V1.517C32.64 0.679 33.319 0 34.157 0H35.675C36.513 0 37.192 0.679 37.192 1.517V7.586H40.378C42.54 7.586 43.413 8.945 43.413 10.621V13.807H49.482C50.32 13.807 50.999 14.486 50.999 15.324V16.842C50.999 17.68 50.32 18.359 49.482 18.359H43.413V22.911H49.482C50.32 22.911 50.999 23.59 50.999 24.428V25.946C50.999 26.784 50.32 27.463 49.482 27.463H43.413V32.15H49.482ZM39.544 13.183C39.544 12.229 38.77 11.455 37.816 11.455H13.808C12.854 11.455 12.8 12.229 12.8 13.183V37.191C12.8 38.145 12.854 38.919 13.808 38.919H37.816C38.77 38.919 39.544 38.145 39.544 37.191V13.183ZM33.338 16.551H36.894V33.811H33.338V16.551ZM26.521 30.254H20.286L19.101 33.811H15.319L21.744 16.551H25.4L31.5 33.811H27.719L26.521 30.254ZM23.392 20.913L21.246 27.374H25.561L23.392 20.913Z" fill="#000000"/>
</g>
<defs>
<clipPath id="clip0_166_76">
<rect width="51" height="51" fill="white"/>
</clipPath>
</defs>
</svg>
