<svg width="51" height="42" viewBox="0 0 51 42" fill="none" xmlns="http://www.w3.org/2000/svg">
<g clip-path="url(#clip0_166_72)">
<path fill-rule="evenodd" clip-rule="evenodd" d="M45.447 41.753L0.583984 35.1L5.56898 0.844971L50.432 7.75797L45.447 41.753ZM4.71798 31.611L42.708 37.365L46.468 10.76L8.59098 5.62997L4.71798 31.611ZM10.554 25.945L14.236 24.925L19.674 25.548L21.883 26.172L30.323 16.426L34.741 25.39L38.83 21.696L40.632 34.444L7.89098 29.571L10.554 25.945ZM16.955 19.259C14.577 19.259 12.65 17.332 12.65 14.953C12.65 12.575 14.577 10.647 16.955 10.647C19.332 10.647 21.26 12.575 21.26 14.953C21.26 17.332 19.332 19.259 16.955 19.259Z" fill="#162834"/>
</g>
<defs>
<clipPath id="clip0_166_72">
<rect width="51" height="42" fill="white"/>
</clipPath>
</defs>
</svg>
